<?xml version="1.0" standalone="no"?>
<!DOCTYPE svg PUBLIC "-//W3C//DTD SVG 20010904//EN"
 "http://www.w3.org/TR/2001/REC-SVG-20010904/DTD/svg10.dtd">
<svg version="1.0" xmlns="http://www.w3.org/2000/svg"
 width="1088.000000pt" height="976.000000pt" viewBox="0 0 1088.000000 976.000000"
 preserveAspectRatio="xMidYMid meet">

<g transform="translate(0.000000,976.000000) scale(0.100000,-0.100000)"
fill="#000000" stroke="none">
<path d="M1945 7474 c-11 -2 -45 -9 -75 -15 -82 -17 -208 -70 -290 -124 -183
-118 -309 -286 -386 -515 l-29 -85 0 -1990 c0 -2253 -9 -2028 85 -2220 123
-254 313 -414 595 -502 l90 -28 3500 0 c3404 0 3502 1 3570 19 370 100 632
379 705 748 14 72 23 3686 9 3853 -10 124 -26 194 -69 302 -109 272 -369 487
-662 547 -70 14 -413 16 -3550 15 -1910 -1 -3482 -3 -3493 -5z m7013 -597 c68
-36 124 -94 159 -165 23 -47 28 -72 31 -152 l4 -95 -84 -52 c-46 -29 -310
-194 -588 -367 -278 -173 -572 -357 -655 -409 -82 -52 -235 -147 -340 -212
-265 -165 -517 -321 -820 -510 -257 -159 -662 -411 -1028 -639 -103 -64 -192
-116 -197 -116 -6 0 -88 49 -183 108 -94 59 -230 144 -302 188 -71 45 -251
157 -400 249 -148 92 -351 218 -450 280 -99 61 -274 170 -390 242 -179 111
-1038 647 -1750 1091 -110 68 -208 132 -219 141 -16 14 -18 28 -14 107 3 74 9
101 32 149 44 89 123 157 216 186 14 4 1578 7 3475 6 l3450 -2 53 -28z m-6918
-1277 c441 -274 692 -430 730 -455 32 -21 189 -119 760 -473 406 -252 1219
-756 1490 -925 124 -77 252 -154 285 -171 78 -39 160 -46 230 -19 40 16 518
305 895 543 68 43 276 173 915 570 121 75 335 208 475 294 140 87 289 180 330
206 41 26 176 111 300 188 448 278 675 418 688 426 10 6 12 -281 10 -1476 l-3
-1483 -28 -57 c-34 -69 -94 -131 -162 -166 l-50 -27 -3465 0 -3465 0 -50 27
c-68 36 -128 101 -162 173 l-28 60 -3 1478 c-2 1189 0 1477 10 1471 7 -4 141
-87 298 -184z"/>
</g>
</svg>
